<svg width="34" height="46" viewBox="0 0 34 46" fill="none" xmlns="http://www.w3.org/2000/svg">
<g clip-path="url(#clip0_25_398)" filter="url(#filter0_d_25_398)">
<path d="M29.9116 24.7644C29.9116 24.8198 29.9107 24.8763 29.9107 24.9327C29.9062 25.4118 29.8758 25.8855 29.8204 26.3529C29.6836 27.5189 29.394 28.6419 28.9721 29.7004C28.9524 29.7497 28.9328 29.7989 28.9122 29.8481C28.8916 29.8965 28.871 29.9457 28.8514 29.995C28.8299 30.0433 28.8093 30.0926 28.7879 30.1409C28.7772 30.1642 28.7664 30.1875 28.7566 30.2116C28.7432 30.2412 28.7298 30.2708 28.7164 30.3003C28.6949 30.3478 28.6726 30.3961 28.6502 30.4445C26.8526 34.2611 23.294 37.099 19.0157 37.7984C18.9594 37.8074 18.9031 37.8164 18.8468 37.8244C18.6332 37.8557 18.4177 37.8826 18.2014 37.9041C17.817 37.9409 17.4282 37.9605 17.034 37.9633C9.84252 38.0055 4 32.1784 4 24.9838C4 24.8683 4.00178 24.7528 4.00445 24.6381C4.00623 24.5808 4.00801 24.5235 4.01068 24.4662C4.01247 24.4241 4.01425 24.3819 4.01692 24.3398C4.02858 24.0962 4.04817 23.8545 4.07506 23.6145C4.08673 23.5061 4.10008 23.3977 4.11442 23.2903C4.14033 23.1005 4.17069 22.9115 4.20471 22.7234C4.21539 22.6688 4.22527 22.6133 4.23685 22.5578C4.25653 22.4556 4.27799 22.3536 4.30034 22.2524C4.31013 22.2094 4.32001 22.1664 4.3307 22.1234C4.41921 21.7446 4.52561 21.3721 4.64804 21.0058C4.66505 20.9539 4.68295 20.9019 4.70164 20.85C4.71598 20.807 4.73112 20.7649 4.74723 20.7219C4.77938 20.6315 4.81339 20.5419 4.84821 20.4523C4.86432 20.4093 4.88124 20.3672 4.89825 20.3251C4.92594 20.2553 4.95452 20.1854 4.98408 20.1156C5.00732 20.0601 5.03145 20.0045 5.05558 19.9491C5.07971 19.8936 5.10384 19.8389 5.12886 19.7843C5.15745 19.7216 5.18701 19.659 5.21559 19.5972C5.23794 19.5506 5.26029 19.504 5.28353 19.4575C5.31033 19.4029 5.33713 19.3491 5.36402 19.2954C5.39171 19.2417 5.41851 19.1879 5.44719 19.1351C5.47488 19.0814 5.50257 19.0285 5.53213 18.9757C5.56071 18.9229 5.58938 18.87 5.61886 18.8181C5.64477 18.7715 5.67157 18.7249 5.69837 18.6793C5.85571 18.4052 6.02373 18.1375 6.20163 17.876C6.22932 17.8339 6.2579 17.7918 6.28747 17.7507C6.83632 16.9617 7.47011 16.2346 8.1754 15.5808C8.43825 15.3381 8.71081 15.1053 8.99245 14.8832C13.3341 11.4605 15.3016 5.8268 14.0448 0.437575C13.9662 0.0999463 14.2728 0.00235963 14.4605 0.046247C14.4694 0.048923 14.4784 0.0515991 14.4873 0.0542751C14.4917 0.0560592 14.4971 0.0578431 14.5016 0.0587352C14.5624 0.0793408 14.6231 0.0990545 14.6831 0.120552C14.8404 0.174252 14.9968 0.231608 15.1515 0.29066C15.1962 0.307697 15.2409 0.325627 15.2847 0.342575C15.3383 0.364073 15.392 0.385571 15.4447 0.407068C15.4894 0.424998 15.5332 0.442928 15.577 0.46166C15.628 0.483158 15.678 0.504655 15.7281 0.526153C15.7844 0.550327 15.8408 0.575392 15.897 0.600458C16.0258 0.657815 16.1536 0.716867 16.2805 0.777792C16.3368 0.804641 16.3932 0.832383 16.4486 0.860214C16.5559 0.913022 16.6631 0.967702 16.7695 1.02319C16.824 1.05182 16.8777 1.07956 16.9313 1.10918C16.9965 1.14414 17.0609 1.17902 17.1252 1.21577C17.5105 1.42888 17.8885 1.65902 18.2605 1.90441C18.3257 1.94741 18.3901 1.9904 18.4545 2.03429C18.9622 2.37905 19.4574 2.75335 19.9384 3.15279C19.9983 3.20203 20.0572 3.25216 20.1163 3.30238C20.3048 3.46268 20.4917 3.62654 20.6759 3.79496C20.734 3.84866 20.7921 3.90244 20.8502 3.95614C21.1497 4.23463 21.4429 4.52391 21.7308 4.82301C21.7799 4.87492 21.8299 4.92693 21.8792 4.97973C21.9418 5.04601 22.0043 5.11229 22.066 5.17946C22.1143 5.23227 22.1625 5.28516 22.2108 5.33797C22.2662 5.39889 22.3207 5.45884 22.3752 5.52066C22.436 5.58872 22.4959 5.65678 22.5558 5.72573C22.5978 5.77408 22.6399 5.82332 22.6819 5.87166C22.7409 5.94062 22.799 6.00957 22.8571 6.07852C22.9098 6.14212 22.9626 6.20483 23.0145 6.26835C23.0672 6.33195 23.12 6.39644 23.1709 6.46084C23.2201 6.52088 23.2683 6.58171 23.3157 6.64264C23.3469 6.68028 23.3765 6.71783 23.406 6.75637C23.448 6.80828 23.4891 6.86118 23.5293 6.91488C23.5633 6.95877 23.5972 7.00266 23.6303 7.04654C23.7312 7.1791 23.8305 7.31254 23.9297 7.44688C24.0298 7.58389 24.1291 7.72091 24.2265 7.85971C24.2739 7.92598 24.3194 7.99226 24.3659 8.05854C24.4133 8.1266 24.4607 8.19644 24.508 8.2654C24.5554 8.33435 24.6019 8.40419 24.6484 8.47404C24.6859 8.52863 24.7225 8.5842 24.7592 8.63969C25.4618 9.70627 26.1019 10.8292 26.6731 11.9872C26.7401 12.1233 26.8063 12.2594 26.8715 12.3964C27.1933 13.0708 27.491 13.7559 27.7645 14.4481C27.7949 14.5251 27.8253 14.6021 27.8548 14.6791C27.8852 14.7561 27.9147 14.8332 27.9433 14.911C27.9728 14.988 28.0015 15.0651 28.0301 15.143C28.0586 15.2199 28.0873 15.297 28.115 15.3749C28.2026 15.6176 28.2876 15.8611 28.3689 16.1047C28.3912 16.1728 28.4144 16.24 28.4359 16.308C28.4618 16.3859 28.4877 16.4639 28.5119 16.5417C28.5369 16.6205 28.5619 16.6985 28.586 16.7763C28.6522 16.9894 28.7166 17.2026 28.7773 17.4157C28.7889 17.4569 28.8005 17.4973 28.8122 17.5375C28.8292 17.5966 28.8452 17.6557 28.8622 17.7148C28.8837 17.7936 28.9052 17.8724 28.9266 17.9503C28.9472 18.0282 28.9677 18.107 28.9883 18.1849C29.0107 18.2673 29.0312 18.3497 29.0518 18.4321C29.0876 18.5745 29.1224 18.7168 29.1573 18.8593C29.1779 18.9479 29.1985 19.0366 29.219 19.1253C29.2529 19.2775 29.287 19.4288 29.3191 19.5811C29.32 19.5856 29.3209 19.59 29.3218 19.5946C29.3548 19.7504 29.3862 19.9054 29.4165 20.0602C29.5229 20.6074 29.6132 21.1527 29.6856 21.6937C29.6963 21.7715 29.7062 21.8486 29.716 21.9256C29.7195 21.956 29.7231 21.9856 29.7266 22.016C29.7445 22.1575 29.7607 22.2981 29.7749 22.4387C29.7838 22.5175 29.7919 22.5963 29.799 22.6742C29.8143 22.8309 29.8285 22.9876 29.8402 23.1426C29.8517 23.294 29.8625 23.4452 29.8714 23.5957C29.8768 23.6862 29.8821 23.7766 29.8858 23.8662C29.8893 23.9333 29.892 24.0014 29.8956 24.0686V24.073C29.8982 24.1465 29.9009 24.2199 29.9036 24.2925V24.3113C29.9053 24.3838 29.9071 24.4563 29.9089 24.5289C29.9107 24.6076 29.9116 24.6865 29.9116 24.7644Z" fill="url(#paint0_radial_25_398)"/>
<path d="M24.0432 30.6394C23.2768 34.4075 19.5849 36.9019 15.8351 36.08C12.1153 35.2647 9.77297 31.5742 10.6077 27.8578C11.037 25.9467 12.2624 24.4113 13.8553 23.4873C16.5507 21.9238 18.223 19.1477 18.6474 16.0565C18.6481 16.0514 18.6489 16.049 18.6498 16.0495C23.1395 18.4909 25.0724 25.5801 24.0432 30.6394Z" fill="url(#paint1_radial_25_398)"/>
<path d="M29.9116 24.7644C29.9116 24.8198 29.9107 24.8763 29.9107 24.9327C29.9045 25.4127 29.8731 25.8873 29.8177 26.3547C29.6792 27.5207 29.3913 28.6437 28.9721 29.7004C28.9524 29.7497 28.9328 29.7989 28.9122 29.8481C28.8916 29.8965 28.871 29.9457 28.8514 29.995C28.8299 30.0433 28.8093 30.0926 28.7879 30.1409C28.7772 30.1642 28.7664 30.1875 28.7566 30.2116C28.7432 30.2412 28.7298 30.2708 28.7164 30.3003C28.6949 30.3478 28.6726 30.3961 28.6502 30.4445C26.857 34.2665 23.3101 37.1036 19.0157 37.7984C18.9594 37.8074 18.9031 37.8164 18.8468 37.8244C18.6332 37.8566 18.4177 37.8826 18.2014 37.9041C17.817 37.9409 17.4282 37.9605 17.034 37.9633C9.84252 38.0055 4 32.1784 4 24.9838C4 24.8683 4.00178 24.7528 4.00445 24.6381C4.00623 24.5808 4.00801 24.5235 4.01068 24.4662C4.01247 24.4241 4.01425 24.3819 4.01692 24.3398C4.02858 24.0962 4.04817 23.8545 4.07506 23.6145C4.08673 23.5061 4.10008 23.3977 4.11442 23.2903C4.14033 23.1005 4.17069 22.9115 4.20471 22.7234C4.21539 22.6688 4.22527 22.6133 4.23685 22.5578C4.25653 22.4556 4.27799 22.3536 4.30034 22.2524C4.31013 22.2094 4.32001 22.1664 4.3307 22.1234C4.41921 21.7446 4.52561 21.3721 4.64804 21.0058C4.66505 20.9539 4.68295 20.9019 4.70164 20.85C4.71598 20.807 4.73112 20.7649 4.74723 20.7219C4.77938 20.6315 4.81339 20.5419 4.84821 20.4523C4.86432 20.4093 4.88124 20.3672 4.89825 20.3251C4.92594 20.2553 4.95452 20.1854 4.98408 20.1156C5.00732 20.0601 5.03145 20.0045 5.05558 19.9491C5.07971 19.8936 5.10384 19.8389 5.12886 19.7843C5.15745 19.7216 5.18701 19.659 5.21559 19.5972C5.23794 19.5506 5.26029 19.504 5.28353 19.4575C5.31033 19.4029 5.33713 19.3491 5.36402 19.2954C5.39171 19.2417 5.41851 19.1879 5.44719 19.1351C5.47488 19.0814 5.50257 19.0285 5.53213 18.9757C5.56071 18.9229 5.58938 18.87 5.61886 18.8181C5.64477 18.7715 5.67157 18.7249 5.69837 18.6793C5.85571 18.4052 6.02373 18.1375 6.20163 17.876C6.22932 17.8339 6.2579 17.7918 6.28747 17.7507C6.83632 16.9617 7.47011 16.2346 8.1754 15.5808C8.43825 15.3381 8.71081 15.1053 8.99245 14.8832C13.3341 11.4605 15.3016 5.8268 14.0448 0.437575C13.9662 0.0999463 14.2728 0.00235963 14.4605 0.046247C14.4694 0.048923 14.4784 0.0515991 14.4873 0.0542751C14.4917 0.0560592 14.4971 0.0578431 14.5016 0.0587352C14.5624 0.0793408 14.6231 0.0990545 14.6831 0.120552C14.8404 0.174252 14.9968 0.231608 15.1515 0.29066C15.1962 0.307697 15.2409 0.325627 15.2847 0.342575C15.3383 0.364073 15.392 0.385571 15.4447 0.407068C15.4894 0.424998 15.5332 0.442928 15.577 0.46166C15.628 0.483158 15.678 0.504655 15.7281 0.526153C15.7844 0.550327 15.8408 0.575392 15.897 0.600458C16.0258 0.657815 16.1536 0.716867 16.2805 0.777792C16.3368 0.804641 16.3932 0.832383 16.4486 0.860214C16.5559 0.913022 16.6631 0.967702 16.7695 1.02319C16.824 1.05182 16.8777 1.07956 16.9313 1.10918C16.9965 1.14414 17.0609 1.17902 17.1252 1.21577C17.5105 1.42888 17.8885 1.65902 18.2605 1.90441C18.3257 1.94741 18.3901 1.9904 18.4545 2.03429C18.9622 2.37905 19.4574 2.75335 19.9384 3.15279C19.9983 3.20203 20.0572 3.25216 20.1163 3.30238C20.3048 3.46268 20.4917 3.62654 20.6759 3.79496C20.734 3.84866 20.7921 3.90244 20.8502 3.95614C21.1497 4.23463 21.4429 4.52391 21.7308 4.82301C21.7799 4.87492 21.8299 4.92693 21.8792 4.97973C21.9418 5.04601 22.0043 5.11229 22.066 5.17946C22.1143 5.23227 22.1625 5.28516 22.2108 5.33797C22.2662 5.39889 22.3207 5.45884 22.3752 5.52066C22.436 5.58872 22.4959 5.65678 22.5558 5.72573C22.5978 5.77408 22.6399 5.82332 22.6819 5.87166C22.7409 5.94062 22.799 6.00957 22.8571 6.07852C22.9098 6.14212 22.9626 6.20483 23.0145 6.26835C23.0672 6.33195 23.12 6.39644 23.1709 6.46084C23.2201 6.52088 23.2683 6.58171 23.3157 6.64264C23.3469 6.68028 23.3765 6.71783 23.406 6.75637C23.448 6.80828 23.4891 6.86118 23.5293 6.91488C23.5633 6.95877 23.5972 7.00266 23.6303 7.04654C23.7312 7.1791 23.8305 7.31254 23.9297 7.44688C24.0298 7.58389 24.1291 7.72091 24.2265 7.85971C24.2739 7.92598 24.3194 7.99226 24.3659 8.05854C24.4133 8.1266 24.4607 8.19644 24.508 8.2654C24.5554 8.33435 24.6019 8.40419 24.6484 8.47404C24.6859 8.52863 24.7225 8.5842 24.7592 8.63969C25.4618 9.70627 26.1019 10.8292 26.6731 11.9872C26.7401 12.1233 26.8063 12.2594 26.8715 12.3964C27.1933 13.0708 27.491 13.7559 27.7645 14.4481C27.7949 14.5251 27.8253 14.6021 27.8548 14.6791C27.8852 14.7561 27.9147 14.8332 27.9433 14.911C27.9728 14.988 28.0015 15.0651 28.0301 15.143C28.0586 15.2199 28.0873 15.297 28.115 15.3749C28.2026 15.6176 28.2876 15.8611 28.3689 16.1047C28.3912 16.1728 28.4144 16.24 28.4359 16.308C28.4618 16.3859 28.4877 16.4639 28.5119 16.5417C28.5369 16.6205 28.5619 16.6985 28.586 16.7763C28.6522 16.9894 28.7157 17.2026 28.7773 17.4157C28.7889 17.4569 28.8005 17.4973 28.8122 17.5375C28.8292 17.5966 28.8452 17.6557 28.8622 17.7148C28.8837 17.7936 28.9052 17.8724 28.9266 17.9503C28.9472 18.0282 28.9677 18.107 28.9883 18.1849C29.0107 18.2673 29.0312 18.3497 29.0518 18.4321C29.0876 18.5745 29.1224 18.7168 29.1573 18.8593C29.1779 18.9479 29.1985 19.0366 29.219 19.1253C29.2529 19.2775 29.287 19.4288 29.3191 19.5811C29.32 19.5856 29.3209 19.59 29.3218 19.5946C29.3548 19.7504 29.3862 19.9054 29.4165 20.0602C29.5229 20.6074 29.6132 21.1527 29.6856 21.6937C29.6963 21.7715 29.7062 21.8486 29.716 21.9256C29.7195 21.956 29.7231 21.9856 29.7266 22.016C29.7445 22.1575 29.7607 22.2981 29.7749 22.4387C29.7838 22.5175 29.7919 22.5963 29.799 22.6742C29.8143 22.8309 29.8285 22.9876 29.8402 23.1426C29.8517 23.294 29.8625 23.4452 29.8714 23.5957C29.8768 23.6862 29.8821 23.7766 29.8858 23.8662C29.8893 23.9333 29.892 24.0014 29.8956 24.0686V24.073C29.8982 24.1465 29.9009 24.2199 29.9036 24.2925V24.3113C29.9053 24.3507 29.9062 24.3901 29.9071 24.4295C29.908 24.4626 29.9089 24.4958 29.9089 24.5289C29.9107 24.6076 29.9116 24.6865 29.9116 24.7644Z" fill="url(#paint2_radial_25_398)"/>
<path d="M26.9667 24.0897C26.6911 29.8799 21.7647 34.4477 15.9895 34.0885C10.2606 33.7321 5.92287 28.7746 6.31198 23.0456C6.51215 20.0997 7.98462 17.5296 10.1453 15.7855C13.8012 12.8344 16.1655 7.94697 16.0874 3.24415C16.0874 3.2438 16.0876 3.24246 16.0882 3.24023C16.1752 2.91277 16.537 2.74123 16.8476 2.8753C23.7222 5.84127 27.3267 16.5243 26.9667 24.0897Z" fill="url(#paint3_linear_25_398)"/>
</g>
<defs>
<filter id="filter0_d_25_398" x="0" y="0" width="34" height="46" filterUnits="userSpaceOnUse" color-interpolation-filters="sRGB">
<feFlood flood-opacity="0" result="BackgroundImageFix"/>
<feColorMatrix in="SourceAlpha" type="matrix" values="0 0 0 0 0 0 0 0 0 0 0 0 0 0 0 0 0 0 127 0" result="hardAlpha"/>
<feOffset dy="4"/>
<feGaussianBlur stdDeviation="2"/>
<feComposite in2="hardAlpha" operator="out"/>
<feColorMatrix type="matrix" values="0 0 0 0 0 0 0 0 0 0 0 0 0 0 0 0 0 0 0.25 0"/>
<feBlend mode="normal" in2="BackgroundImageFix" result="effect1_dropShadow_25_398"/>
<feBlend mode="normal" in="SourceGraphic" in2="effect1_dropShadow_25_398" result="shape"/>
</filter>
<radialGradient id="paint0_radial_25_398" cx="0" cy="0" r="1" gradientUnits="userSpaceOnUse" gradientTransform="translate(3.34345 -0.0699891) scale(37.6861 37.7542)">
<stop stop-color="#FFCF42"/>
<stop offset="0.262" stop-color="#FFCD42"/>
<stop offset="0.408" stop-color="#FFC540"/>
<stop offset="0.525" stop-color="#FFB73E"/>
<stop offset="0.628" stop-color="#FFA33A"/>
<stop offset="0.72" stop-color="#FF8A35"/>
<stop offset="0.805" stop-color="#FF6A30"/>
<stop offset="0.885" stop-color="#FF4529"/>
<stop offset="0.958" stop-color="#FF1B21"/>
<stop offset="1" stop-color="#FF001C"/>
</radialGradient>
<radialGradient id="paint1_radial_25_398" cx="0" cy="0" r="1" gradientUnits="userSpaceOnUse" gradientTransform="translate(18.3611 20.5676) scale(14.1421 14.1677)">
<stop stop-color="#FFB500" stop-opacity="0"/>
<stop offset="0.109" stop-color="#FCAD01" stop-opacity="0.109"/>
<stop offset="0.281" stop-color="#F49605" stop-opacity="0.281"/>
<stop offset="0.496" stop-color="#E8710B" stop-opacity="0.496"/>
<stop offset="0.744" stop-color="#D63D13" stop-opacity="0.744"/>
<stop offset="1" stop-color="#C1001C"/>
</radialGradient>
<radialGradient id="paint2_radial_25_398" cx="0" cy="0" r="1" gradientUnits="userSpaceOnUse" gradientTransform="translate(13.5136 11.9449) scale(25.0958 25.1411)">
<stop stop-color="#F9C6A0" stop-opacity="0"/>
<stop offset="0.014" stop-color="#F9C69E" stop-opacity="0"/>
<stop offset="0.02" stop-color="#FAC797" stop-opacity="0"/>
<stop offset="0.023" stop-color="#FAC88C" stop-opacity="0"/>
<stop offset="0.026" stop-color="#FBCA7B" stop-opacity="0"/>
<stop offset="0.029" stop-color="#FDCC65" stop-opacity="0"/>
<stop offset="0.031" stop-color="#FECE4A" stop-opacity="0"/>
<stop offset="0.032" stop-color="#FFCF42" stop-opacity="0"/>
<stop offset="0.408" stop-color="#FFCD42" stop-opacity="0.389"/>
<stop offset="0.543" stop-color="#FFC640" stop-opacity="0.529"/>
<stop offset="0.64" stop-color="#FFBB3E" stop-opacity="0.628"/>
<stop offset="0.718" stop-color="#FFAA3B" stop-opacity="0.709"/>
<stop offset="0.785" stop-color="#FF9437" stop-opacity="0.778"/>
<stop offset="0.845" stop-color="#FF7832" stop-opacity="0.839"/>
<stop offset="0.898" stop-color="#FF582C" stop-opacity="0.895"/>
<stop offset="0.947" stop-color="#FF3225" stop-opacity="0.946"/>
<stop offset="0.991" stop-color="#FF091E" stop-opacity="0.991"/>
<stop offset="1" stop-color="#FF001C"/>
</radialGradient>
<linearGradient id="paint3_linear_25_398" x1="21.758" y1="16.2345" x2="44.9593" y2="2.79002" gradientUnits="userSpaceOnUse">
<stop offset="0.0001" stop-color="#E7EEED" stop-opacity="0"/>
<stop offset="1" stop-color="#E7EEED"/>
</linearGradient>
<clipPath id="clip0_25_398">
<rect width="26" height="38" fill="white" transform="translate(4)"/>
</clipPath>
</defs>
</svg>
